<svg width="48" height="48" viewBox="0 0 48 48" fill="none" xmlns="http://www.w3.org/2000/svg">
<path d="M32.2815 22.4813C32.1983 22.5613 32.0996 22.6248 31.9909 22.6681C31.8823 22.7115 31.7658 22.7338 31.6481 22.7338C31.5305 22.7338 31.414 22.7115 31.3053 22.6681C31.1966 22.6248 31.0979 22.5613 31.0148 22.4813L24.4866 16.2029V33.0626C24.4866 33.2909 24.3922 33.5099 24.2244 33.6713C24.0565 33.8327 23.8288 33.9234 23.5914 33.9234C23.3539 33.9234 23.1262 33.8327 22.9584 33.6713C22.7905 33.5099 22.6962 33.2909 22.6962 33.0626V16.2029L16.168 22.4813C16 22.6428 15.7722 22.7336 15.5346 22.7336C15.2971 22.7336 15.0692 22.6428 14.9013 22.4813C14.7333 22.3198 14.6389 22.1007 14.6389 21.8723C14.6389 21.6439 14.7333 21.4248 14.9013 21.2633L22.958 13.5161C23.0412 13.4361 23.1399 13.3726 23.2486 13.3293C23.3572 13.286 23.4737 13.2637 23.5914 13.2637C23.709 13.2637 23.8255 13.286 23.9342 13.3293C24.0428 13.3726 24.1416 13.4361 24.2247 13.5161L32.2815 21.2633C32.3647 21.3432 32.4307 21.4382 32.4758 21.5427C32.5208 21.6472 32.544 21.7592 32.544 21.8723C32.544 21.9854 32.5208 22.0974 32.4758 22.2019C32.4307 22.3064 32.3647 22.4014 32.2815 22.4813Z" fill="black"/>
</svg>
