<svg width="48" height="48" viewBox="0 0 48 48" fill="none" xmlns="http://www.w3.org/2000/svg">
<path d="M24.0009 40.3197C14.9769 40.3197 7.68091 33.0237 7.68091 23.9997C7.68091 14.9757 14.9769 7.67969 24.0009 7.67969C33.0249 7.67969 40.3209 14.9757 40.3209 23.9997C40.3209 33.0237 33.0249 40.3197 24.0009 40.3197ZM24.0009 9.59969C16.0329 9.59969 9.60091 16.0317 9.60091 23.9997C9.60091 31.9677 16.0329 38.3997 24.0009 38.3997C31.9689 38.3997 38.4009 31.9677 38.4009 23.9997C38.4009 16.0317 31.9689 9.59969 24.0009 9.59969Z" fill="black"/>
<path d="M23.7136 33.312L22.3696 31.968L30.3376 24L22.3696 16.032L23.7136 14.688L33.0256 24L23.7136 33.312Z" fill="black"/>
<path d="M15.3608 23.0398H31.6808V24.9598H15.3608V23.0398Z" fill="black"/>
</svg>
