<svg width="595" height="95" viewBox="0 0 595 95" fill="none" xmlns="http://www.w3.org/2000/svg">
<g clip-path="url(#clip0_2423_1130)">
<path d="M55.8279 48.0648C55.7447 47.9848 55.646 47.9213 55.5373 47.878C55.4286 47.8347 55.3122 47.8124 55.1945 47.8124C55.0769 47.8124 54.9604 47.8347 54.8517 47.878C54.743 47.9213 54.6443 47.9848 54.5612 48.0648L48.0329 54.3433V37.4835C48.0329 37.2552 47.9386 37.0363 47.7708 36.8749C47.6029 36.7134 47.3752 36.6227 47.1378 36.6227C46.9003 36.6227 46.6726 36.7134 46.5048 36.8749C46.3369 37.0363 46.2426 37.2552 46.2426 37.4835V54.3433L39.7143 48.0648C39.5464 47.9033 39.3185 47.8126 39.081 47.8126C38.8434 47.8126 38.6156 47.9033 38.4476 48.0648C38.2797 48.2264 38.1853 48.4454 38.1853 48.6739C38.1853 48.9023 38.2797 49.1213 38.4476 49.2829L46.5044 57.03C46.5875 57.11 46.6863 57.1735 46.7949 57.2169C46.9036 57.2602 47.0201 57.2825 47.1378 57.2825C47.2554 57.2825 47.3719 57.2602 47.4806 57.2169C47.5892 57.1735 47.688 57.11 47.7711 57.03L55.8279 49.2829C55.9111 49.2029 55.9771 49.108 56.0222 49.0035C56.0672 48.899 56.0904 48.787 56.0904 48.6739C56.0904 48.5607 56.0672 48.4487 56.0222 48.3442C55.9771 48.2397 55.9111 48.1448 55.8279 48.0648Z" fill="black"/>
<path fill-rule="evenodd" clip-rule="evenodd" d="M150.875 55.9053C151.138 55.9053 151.391 55.812 151.577 55.6459C151.763 55.4799 151.867 55.2547 151.867 55.0198V38.2671L158.11 43.8395C158.201 43.9265 158.311 43.9963 158.432 44.0447C158.554 44.0931 158.685 44.1191 158.818 44.1212C158.952 44.1233 159.084 44.1014 159.207 44.0569C159.331 44.0124 159.443 43.9461 159.537 43.862C159.632 43.7779 159.706 43.6778 159.756 43.5675C159.806 43.4573 159.83 43.3392 159.828 43.2203C159.825 43.1014 159.796 42.9841 159.742 42.8755C159.688 42.7669 159.61 42.6692 159.512 42.5881L151.576 35.5045C151.39 35.3387 151.138 35.2455 150.875 35.2455C150.613 35.2455 150.36 35.3387 150.174 35.5045L142.239 42.5881C142.141 42.6692 142.063 42.7669 142.009 42.8755C141.955 42.9841 141.925 43.1014 141.923 43.2203C141.921 43.3392 141.945 43.4573 141.995 43.5675C142.045 43.6778 142.119 43.7779 142.213 43.862C142.308 43.9461 142.42 44.0124 142.543 44.0569C142.667 44.1014 142.799 44.1233 142.932 44.1212C143.066 44.1191 143.197 44.0931 143.319 44.0447C143.44 43.9963 143.55 43.9265 143.641 43.8395L149.883 38.2671V55.0198C149.883 55.2547 149.988 55.4799 150.174 55.6459C150.36 55.812 150.612 55.9053 150.875 55.9053Z" fill="black"/>
<rect x="232.759" y="28.0461" width="38" height="38" rx="19" stroke="#171717" stroke-opacity="0.1"/>
<path d="M260.449 48.1584C260.366 48.0784 260.267 48.0149 260.159 47.9716C260.05 47.9283 259.933 47.906 259.816 47.906C259.698 47.906 259.582 47.9283 259.473 47.9716C259.364 48.0149 259.266 48.0784 259.182 48.1584L252.654 54.4368V37.5771C252.654 37.3488 252.56 37.1299 252.392 36.9684C252.224 36.807 251.997 36.7163 251.759 36.7163C251.522 36.7163 251.294 36.807 251.126 36.9684C250.958 37.1299 250.864 37.3488 250.864 37.5771V54.4368L244.336 48.1584C244.168 47.9969 243.94 47.9062 243.702 47.9062C243.465 47.9062 243.237 47.9969 243.069 48.1584C242.901 48.3199 242.807 48.539 242.807 48.7674C242.807 48.9959 242.901 49.2149 243.069 49.3764L251.126 57.1236C251.209 57.2036 251.308 57.2671 251.416 57.3104C251.525 57.3537 251.641 57.376 251.759 57.376C251.877 57.376 251.993 57.3537 252.102 57.3104C252.211 57.2671 252.309 57.2036 252.392 57.1236L260.449 49.3764C260.532 49.2965 260.598 49.2016 260.644 49.0971C260.689 48.9926 260.712 48.8805 260.712 48.7674C260.712 48.6543 260.689 48.5423 260.644 48.4378C260.598 48.3333 260.532 48.2384 260.449 48.1584Z" fill="black"/>
<path d="M347.491 55.198V47.634L362.618 55.198V37.4352L347.491 44.9992V37.4352H344.856V55.198H347.491Z" fill="black"/>
<path d="M463.624 55.198V47.634L448.496 55.198V37.4352L463.624 44.9992V37.4352H466.259V55.198H463.624Z" fill="black"/>
<path d="M575.534 39.3775C575.648 39.2643 575.738 39.1299 575.799 38.9819C575.86 38.8339 575.892 38.6754 575.892 38.5152C575.892 38.355 575.86 38.1964 575.799 38.0485C575.738 37.9005 575.648 37.7661 575.534 37.6529L571.878 33.9967C571.649 33.768 571.339 33.6395 571.016 33.6395C570.692 33.6395 570.382 33.768 570.154 33.9967C569.925 34.2254 569.796 34.5355 569.796 34.8589C569.796 35.1824 569.925 35.4925 570.154 35.7212L571.73 37.2964H569.94C568.195 37.2979 566.474 37.7153 564.922 38.5141C563.37 39.3128 562.03 40.47 561.015 41.8896L554.659 50.7865C553.869 51.8906 552.827 52.7905 551.619 53.4118C550.412 54.0331 549.074 54.3577 547.716 54.3589H544.203C543.88 54.3589 543.57 54.4873 543.342 54.7159C543.113 54.9445 542.985 55.2545 542.985 55.5777C542.985 55.9009 543.113 56.2109 543.342 56.4395C543.57 56.668 543.88 56.7964 544.203 56.7964H547.716C549.462 56.795 551.182 56.3776 552.735 55.5788C554.287 54.7801 555.626 53.6229 556.642 52.2033L562.998 43.3064C563.788 42.2023 564.83 41.3023 566.037 40.6811C567.245 40.0598 568.583 39.7352 569.94 39.7339H571.73L570.154 41.3092C569.925 41.5379 569.796 41.848 569.796 42.1714C569.796 42.4949 569.925 42.805 570.154 43.0337C570.382 43.2624 570.692 43.3909 571.016 43.3909C571.339 43.3909 571.649 43.2624 571.878 43.0337L575.534 39.3775ZM561.114 50.2457C561.244 50.1526 561.391 50.0862 561.547 50.0501C561.703 50.0139 561.864 50.0089 562.022 50.0352C562.18 50.0615 562.331 50.1187 562.467 50.2034C562.603 50.2881 562.721 50.3988 562.814 50.529L562.996 50.7834C563.787 51.8883 564.829 52.789 566.036 53.4108C567.244 54.0326 568.582 54.3576 569.94 54.3589H571.73L570.154 52.7837C569.925 52.555 569.796 52.2449 569.796 51.9214C569.796 51.598 569.925 51.2879 570.154 51.0592C570.382 50.8305 570.692 50.702 571.016 50.702C571.339 50.702 571.649 50.8305 571.878 51.0592L575.534 54.7154C575.648 54.8286 575.738 54.963 575.799 55.111C575.86 55.2589 575.892 55.4175 575.892 55.5777C575.892 55.7379 575.86 55.8964 575.799 56.0444C575.738 56.1924 575.648 56.3268 575.534 56.44L571.878 60.0962C571.649 60.3249 571.339 60.4534 571.016 60.4534C570.692 60.4534 570.382 60.3249 570.154 60.0962C569.925 59.8675 569.796 59.5574 569.796 59.2339C569.796 58.9105 569.925 58.6004 570.154 58.3717L571.73 56.7964H569.94C568.195 56.795 566.474 56.3776 564.922 55.5788C563.37 54.7801 562.03 53.6229 561.015 52.2033L560.832 51.9489C560.738 51.8186 560.671 51.6712 560.635 51.515C560.598 51.3588 560.593 51.197 560.619 51.0388C560.645 50.8805 560.702 50.729 560.787 50.5929C560.872 50.4568 560.983 50.3388 561.114 50.2457ZM556.543 43.8472C556.413 43.9403 556.266 44.0067 556.11 44.0428C555.954 44.0789 555.792 44.084 555.634 44.0577C555.477 44.0314 555.325 43.9742 555.19 43.8895C555.054 43.8047 554.936 43.6941 554.843 43.5639L554.66 43.3094C553.87 42.2046 552.828 41.3039 551.621 40.6821C550.413 40.0603 549.075 39.7353 547.716 39.7339H544.203C543.88 39.7339 543.57 39.6055 543.342 39.377C543.113 39.1484 542.985 38.8384 542.985 38.5152C542.985 38.192 543.113 37.882 543.342 37.6534C543.57 37.4248 543.88 37.2964 544.203 37.2964H547.716C549.462 37.2979 551.182 37.7153 552.735 38.5141C554.287 39.3128 555.626 40.47 556.642 41.8896L556.825 42.144C556.919 42.2743 556.986 42.4217 557.022 42.5779C557.059 42.7341 557.064 42.8959 557.038 43.0541C557.012 43.2124 556.954 43.3639 556.869 43.5C556.785 43.6361 556.674 43.7541 556.543 43.8472Z" fill="black"/>
</g>
<rect x="0.688658" y="-0.688658" width="593.623" height="92.7153" rx="6.19792" transform="matrix(1 0 0 -1 0 92.7152)" stroke="#9747FF" stroke-width="1.37732" stroke-dasharray="13.77 6.89"/>
<defs>
<clipPath id="clip0_2423_1130">
<rect width="595" height="94.0926" rx="6.88658" transform="matrix(1 0 0 -1 0 94.0925)" fill="white"/>
</clipPath>
</defs>
</svg>
