<svg width="48" height="49" viewBox="0 0 48 49" fill="none" xmlns="http://www.w3.org/2000/svg">
<rect x="2.54736" y="0.5" width="42.9051" height="47.6597" rx="21.4526" stroke="#171717" stroke-opacity="0.1"/>
<path d="M32.6899 25.4421C32.6068 25.3621 32.5081 25.2986 32.3994 25.2553C32.2907 25.2119 32.1742 25.1896 32.0566 25.1896C31.9389 25.1896 31.8224 25.2119 31.7138 25.2553C31.6051 25.2986 31.5064 25.3621 31.4232 25.4421L24.895 31.7205V14.8608C24.895 14.6325 24.8007 14.4136 24.6328 14.2521C24.4649 14.0907 24.2372 14 23.9998 14C23.7624 14 23.5347 14.0907 23.3668 14.2521C23.1989 14.4136 23.1046 14.6325 23.1046 14.8608V31.7205L16.5764 25.4421C16.4084 25.2806 16.1806 25.1898 15.9431 25.1898C15.7055 25.1898 15.4777 25.2806 15.3097 25.4421C15.1417 25.6036 15.0474 25.8227 15.0474 26.0511C15.0474 26.2795 15.1417 26.4986 15.3097 26.6601L23.3665 34.4073C23.4496 34.4873 23.5483 34.5508 23.657 34.5941C23.7657 34.6374 23.8822 34.6597 23.9998 34.6597C24.1175 34.6597 24.2339 34.6374 24.3426 34.5941C24.4513 34.5508 24.55 34.4873 24.6332 34.4073L32.6899 26.6601C32.7732 26.5802 32.8392 26.4852 32.8842 26.3808C32.9293 26.2763 32.9525 26.1642 32.9525 26.0511C32.9525 25.938 32.9293 25.826 32.8842 25.7215C32.8392 25.617 32.7732 25.522 32.6899 25.4421Z" fill="black"/>
</svg>
