<svg width="39" height="39" viewBox="0 0 39 39" fill="none" xmlns="http://www.w3.org/2000/svg">
<path d="M36.2055 27.1687C36.3188 27.2819 36.4087 27.4163 36.4701 27.5642C36.5314 27.7122 36.563 27.8708 36.563 28.031C36.563 28.1911 36.5314 28.3497 36.4701 28.4977C36.4087 28.6456 36.3188 28.78 36.2055 28.8932L32.5493 32.5495C32.3206 32.7782 32.0104 32.9066 31.687 32.9066C31.3636 32.9066 31.0534 32.7782 30.8247 32.5495C30.5961 32.3208 30.4676 32.0106 30.4676 31.6872C30.4676 31.3638 30.5961 31.0536 30.8247 30.8249L32.4015 29.2497H30.6115C28.8658 29.2483 27.1456 28.8309 25.5933 28.0321C24.0411 27.2333 22.7015 26.0762 21.6856 24.6565L15.3299 15.7597C14.5397 14.6556 13.4978 13.7556 12.2905 13.1343C11.0832 12.5131 9.7453 12.1884 8.38756 12.1872H4.87451C4.55128 12.1872 4.24129 12.0588 4.01273 11.8302C3.78417 11.6017 3.65576 11.2917 3.65576 10.9685C3.65576 10.6452 3.78417 10.3352 4.01273 10.1067C4.24129 9.8781 4.55128 9.7497 4.87451 9.7497H8.38756C10.1333 9.75115 11.8535 10.1686 13.4057 10.9673C14.9579 11.7661 16.2975 12.9232 17.3134 14.3429L23.6692 23.2397C24.4594 24.3438 25.5013 25.2438 26.7085 25.8651C27.9158 26.4863 29.2537 26.811 30.6115 26.8122H32.4015L30.8247 25.237C30.5961 25.0083 30.4676 24.6981 30.4676 24.3747C30.4676 24.0513 30.5961 23.7411 30.8247 23.5124C31.0534 23.2837 31.3636 23.1553 31.687 23.1553C32.0104 23.1553 32.3206 23.2837 32.5493 23.5124L36.2055 27.1687ZM21.7847 16.3005C21.9149 16.3935 22.0622 16.46 22.2181 16.4961C22.374 16.5322 22.5356 16.5372 22.6934 16.5109C22.8513 16.4846 23.0025 16.4275 23.1382 16.3427C23.274 16.258 23.3918 16.1474 23.4848 16.0171L23.6676 15.7627C24.4577 14.6578 25.4996 13.7572 26.7072 13.1354C27.9148 12.5135 29.2532 12.1885 30.6115 12.1872H32.4015L30.8247 13.7624C30.5961 13.9911 30.4676 14.3013 30.4676 14.6247C30.4676 14.9481 30.5961 15.2583 30.8247 15.487C31.0534 15.7157 31.3636 15.8441 31.687 15.8441C32.0104 15.8441 32.3206 15.7157 32.5493 15.487L36.2055 11.8307C36.3188 11.7175 36.4087 11.5831 36.4701 11.4352C36.5314 11.2872 36.563 11.1286 36.563 10.9685C36.563 10.8083 36.5314 10.6497 36.4701 10.5017C36.4087 10.3538 36.3188 10.2194 36.2055 10.1062L32.5493 6.44994C32.3206 6.22125 32.0104 6.09277 31.687 6.09277C31.3636 6.09277 31.0534 6.22125 30.8247 6.44994C30.5961 6.67862 30.4676 6.98879 30.4676 7.3122C30.4676 7.63561 30.5961 7.94578 30.8247 8.17447L32.4015 9.7497H30.6115C28.8658 9.75115 27.1456 10.1686 25.5933 10.9673C24.0411 11.7661 22.7015 12.9232 21.6856 14.3429L21.5028 14.5973C21.4093 14.7275 21.3423 14.875 21.3058 15.0311C21.2693 15.1873 21.264 15.3492 21.2902 15.5074C21.3164 15.6656 21.3735 15.8171 21.4584 15.9532C21.5432 16.0893 21.6541 16.2073 21.7847 16.3005ZM17.2144 22.6989C17.0841 22.6059 16.9368 22.5394 16.7809 22.5033C16.625 22.4672 16.4635 22.4622 16.3056 22.4885C16.1477 22.5148 15.9966 22.5719 15.8608 22.6567C15.725 22.7414 15.6072 22.852 15.5142 22.9823L15.3314 23.2367C14.5414 24.3416 13.4994 25.2422 12.2918 25.864C11.0842 26.4859 9.74583 26.8109 8.38756 26.8122H4.87451C4.55128 26.8122 4.24129 26.9406 4.01273 27.1692C3.78417 27.3977 3.65576 27.7077 3.65576 28.031C3.65576 28.3542 3.78417 28.6642 4.01273 28.8927C4.24129 29.1213 4.55128 29.2497 4.87451 29.2497H8.38756C10.1333 29.2483 11.8535 28.8309 13.4057 28.0321C14.9579 27.2333 16.2975 26.0762 17.3134 24.6565L17.4962 24.4021C17.5898 24.2719 17.6567 24.1244 17.6932 23.9683C17.7297 23.8121 17.735 23.6502 17.7088 23.492C17.6826 23.3338 17.6255 23.1823 17.5406 23.0462C17.4558 22.9101 17.3449 22.7921 17.2144 22.6989Z" fill="black"/>
</svg>
