<svg width="876" height="556" viewBox="0 0 876 556" fill="none" xmlns="http://www.w3.org/2000/svg">
<path fill-rule="evenodd" clip-rule="evenodd" d="M875.6 508.633C875.545 528.026 875.5 543.849 875.5 554.731H594.001H276C276 555.006 276 555.281 276 555.556H138L0 555.556C0 503.378 3.56947 451.712 10.5046 403.506C17.4398 355.3 27.6048 311.499 40.4193 274.604C53.2337 237.709 68.4467 208.443 85.1897 188.475C101.933 168.508 119.878 158.23 138 158.23C156.122 158.23 174.067 168.508 190.81 188.475C207.553 208.443 222.766 237.709 235.581 274.604C248.395 311.499 258.56 355.3 265.495 403.506C268.855 426.861 271.425 451.028 273.182 475.672C303.559 352.545 388.098 199.123 429.5 156.731C480.51 104.502 586.861 0.231026 659 0.231032C665.883 0.231032 672.867 0.174332 679.916 0.117109C746.749 -0.425427 819.357 -1.01484 865.5 46.231C876.91 46.231 875.994 369.418 875.6 508.633Z" fill="#FB7EA7"/>
</svg>
